# 3ds Max Wavefront OBJ Exporter v0.97b - (c)2007 guruware
# File Created: 09.01.2014 14:21:35

mtllib skybox.mtl

#
# object Box001
#

v  -0.5000 0.0000 0.5000
v  0.5000 0.0000 0.5000
v  0.5000 0.0000 -0.5000
v  -0.5000 0.0000 -0.5000
v  -0.5000 1.0000 0.5000
v  -0.5000 1.0000 -0.5000
v  0.5000 1.0000 -0.5000
v  0.5000 1.0000 0.5000
# 8 vertices

vn 0.0000 1.0000 -0.0000
vn 0.0000 -1.0000 -0.0000
vn 0.0000 0.0000 -1.0000
vn -1.0000 0.0000 -0.0000
vn 0.0000 0.0000 1.0000
vn 1.0000 0.0000 -0.0000
# 6 vertex normals

vt 0.0000 1.0000 0.0000
vt 1.0000 1.0000 0.0000
vt 1.0000 0.0000 0.0000
vt -0.0000 0.0000 0.0000
vt 0.0000 0.0000 0.0000
# 5 texture coords

g Box001
usemtl Material__43
s 2
f 1/1/1 2/2/1 3/3/1 
f 3/3/1 4/4/1 1/1/1 
usemtl Material__46
s 4
f 5/5/2 6/1/2 7/2/2 
f 7/2/2 8/3/2 5/5/2 
usemtl Material__47
s 8
f 1/5/3 5/1/3 8/2/3 
f 8/2/3 2/3/3 1/5/3 
usemtl Material__45
s 16
f 2/5/4 8/1/4 7/2/4 
f 7/2/4 3/3/4 2/5/4 
usemtl Material__44
s 32
f 3/5/5 7/1/5 6/2/5 
f 6/2/5 4/3/5 3/5/5 
usemtl Material__42
s 64
f 4/5/6 6/1/6 5/2/6 
f 5/2/6 1/3/6 4/5/6 
# 12 faces

