# 3ds Max Wavefront OBJ Exporter v0.97b - (c)2007 guruware
# File Created: 10.12.2013 15:20:05

mtllib teapot.mtl

#
# object Teapot001
#

v  0.7000 0.0000 1.2000
v  0.4970 -0.4970 1.2000
v  0.4981 -0.4981 1.2492
v  0.7016 0.0000 1.2492
v  0.5325 -0.5325 1.2000
v  0.7500 0.0000 1.2000
v  0.0000 -0.7000 1.2000
v  0.0000 -0.7016 1.2492
v  0.0000 -0.7500 1.2000
v  -0.5139 -0.4970 1.2000
v  -0.5002 -0.4981 1.2492
v  -0.5325 -0.5325 1.2000
v  -0.7000 0.0000 1.2000
v  -0.7016 0.0000 1.2492
v  -0.7500 0.0000 1.2000
v  -0.4970 0.4970 1.2000
v  -0.4981 0.4981 1.2492
v  -0.5325 0.5325 1.2000
v  0.0000 0.7000 1.2000
v  0.0000 0.7016 1.2492
v  0.0000 0.7500 1.2000
v  0.4970 0.4970 1.2000
v  0.4981 0.4981 1.2492
v  0.5325 0.5325 1.2000
v  0.6545 -0.6545 0.8109
v  0.9219 0.0000 0.8109
v  0.7100 -0.7100 0.4500
v  1.0000 0.0000 0.4500
v  0.0000 -0.9219 0.8109
v  0.0000 -1.0000 0.4500
v  -0.6545 -0.6545 0.8109
v  -0.7100 -0.7100 0.4500
v  -0.9219 0.0000 0.8109
v  -1.0000 0.0000 0.4500
v  -0.6545 0.6545 0.8109
v  -0.7100 0.7100 0.4500
v  0.0000 0.9219 0.8109
v  0.0000 1.0000 0.4500
v  0.6545 0.6545 0.8109
v  0.7100 0.7100 0.4500
v  0.6213 -0.6213 0.1922
v  0.8750 0.0000 0.1922
v  0.5325 -0.5325 0.0750
v  0.7500 0.0000 0.0750
v  0.0000 -0.8750 0.1922
v  0.0000 -0.7500 0.0750
v  -0.6213 -0.6213 0.1922
v  -0.5325 -0.5325 0.0750
v  -0.8750 0.0000 0.1922
v  -0.7500 0.0000 0.0750
v  -0.6213 0.6213 0.1922
v  -0.5325 0.5325 0.0750
v  0.0000 0.8750 0.1922
v  0.0000 0.7500 0.0750
v  0.6213 0.6213 0.1922
v  0.5325 0.5325 0.0750
v  0.4560 -0.4560 0.0234
v  0.6422 0.0000 0.0234
v  0.0000 0.0000 0.0000
v  0.0000 -0.6422 0.0234
v  -0.4560 -0.4560 0.0234
v  -0.6422 0.0000 0.0234
v  -0.4560 0.4560 0.0234
v  0.0000 0.6422 0.0234
v  0.4560 0.4560 0.0234
v  -0.8000 0.0000 1.0125
v  -0.7750 -0.1125 1.0688
v  -1.2594 -0.1125 1.0477
v  -1.2063 0.0000 0.9984
v  -1.4250 -0.1125 0.9000
v  -1.3500 0.0000 0.9000
v  -0.7500 0.0000 1.1250
v  -1.3125 0.0000 1.0969
v  -1.5000 0.0000 0.9000
v  -0.7750 0.1125 1.0688
v  -1.2594 0.1125 1.0477
v  -1.4250 0.1125 0.9000
v  -1.3172 -0.1125 0.6270
v  -1.2687 0.0000 0.6750
v  -0.9750 -0.1125 0.3750
v  -1.3656 0.0000 0.5789
v  -0.9500 0.0000 0.3000
v  -1.3172 0.1125 0.6270
v  -0.9750 0.1125 0.3750
v  0.8500 0.0000 0.7125
v  0.8500 -0.2475 0.5063
v  1.2687 -0.1706 0.8109
v  1.1938 0.0000 0.9000
v  1.5000 -0.0938 1.2000
v  1.3500 0.0000 1.2000
v  0.8500 0.0000 0.3000
v  1.3437 0.0000 0.7219
v  1.6500 0.0000 1.2000
v  0.8500 0.2475 0.5062
v  1.2687 0.1706 0.8109
v  1.5000 0.0938 1.2000
v  1.5633 -0.0750 1.2334
v  1.4125 0.0000 1.2281
v  1.5000 -0.0563 1.2000
v  1.4000 0.0000 1.2000
v  1.7141 0.0000 1.2387
v  1.6000 0.0000 1.2000
v  1.5633 0.0750 1.2334
v  1.5000 0.0563 1.2000
v  0.0000 0.0000 1.5750
v  0.1155 -0.1155 1.4906
v  0.1625 0.0000 1.4906
v  0.0710 -0.0710 1.3500
v  0.1000 0.0000 1.3500
v  0.0000 -0.1625 1.4906
v  0.0000 -0.1000 1.3500
v  -0.1155 -0.1155 1.4906
v  -0.0710 -0.0710 1.3500
v  -0.1625 0.0000 1.4906
v  -0.1000 0.0000 1.3500
v  -0.1155 0.1155 1.4906
v  -0.0710 0.0710 1.3500
v  0.0000 0.1625 1.4906
v  0.0000 0.1000 1.3500
v  0.1155 0.1155 1.4906
v  0.0710 0.0710 1.3500
v  0.2929 -0.2929 1.2750
v  0.4125 0.0000 1.2750
v  0.4615 -0.4615 1.2000
v  0.6500 0.0000 1.2000
v  0.0000 -0.4125 1.2750
v  0.0000 -0.6500 1.2000
v  -0.2929 -0.2929 1.2750
v  -0.4615 -0.4615 1.2000
v  -0.4125 0.0000 1.2750
v  -0.6500 0.0000 1.2000
v  -0.2929 0.2929 1.2750
v  -0.4615 0.4615 1.2000
v  0.0000 0.4125 1.2750
v  0.0000 0.6500 1.2000
v  0.2929 0.2929 1.2750
v  0.4615 0.4615 1.2000
# 137 vertices

vn -0.9995 0.0000 0.0317
vn -0.7067 0.7067 0.0319
vn -0.0966 0.0966 0.9906
vn -0.1416 0.0000 0.9899
vn 0.5936 -0.5936 0.5435
vn 0.8400 0.0000 0.5425
vn -0.0010 0.9996 0.0283
vn -0.0008 0.1421 0.9899
vn 0.0000 -0.8400 0.5425
vn 0.7268 0.6636 -0.1773
vn 0.0816 0.2165 0.9729
vn -0.5949 -0.5971 0.5381
vn 0.9994 -0.0148 0.0317
vn 0.1496 -0.0134 0.9886
vn -0.8403 0.0004 0.5422
vn 0.7067 -0.7067 0.0319
vn 0.0966 -0.0966 0.9906
vn -0.5936 0.5936 0.5435
vn -0.0000 -0.9995 0.0317
vn -0.0000 -0.1416 0.9899
vn -0.0000 0.8400 0.5425
vn -0.7067 -0.7067 0.0319
vn -0.0966 -0.0966 0.9906
vn 0.5936 0.5936 0.5435
vn 0.6738 -0.6738 0.3034
vn 0.9532 0.0000 0.3025
vn 0.7028 -0.7028 -0.1107
vn 0.9939 0.0000 -0.1105
vn 0.0000 -0.9532 0.3025
vn 0.0000 -0.9939 -0.1105
vn -0.6738 -0.6738 0.3034
vn -0.7028 -0.7028 -0.1107
vn -0.9532 -0.0000 0.3025
vn -0.9939 -0.0000 -0.1105
vn -0.6738 0.6738 0.3034
vn -0.7028 0.7028 -0.1107
vn -0.0000 0.9532 0.3025
vn -0.0000 0.9939 -0.1105
vn 0.6738 0.6738 0.3034
vn 0.7028 0.7028 -0.1107
vn 0.5792 -0.5792 -0.5735
vn 0.8198 0.0000 -0.5726
vn 0.4157 -0.4157 -0.8089
vn 0.5888 0.0000 -0.8083
vn 0.0000 -0.8198 -0.5726
vn 0.0000 -0.5888 -0.8083
vn -0.5792 -0.5792 -0.5735
vn -0.4157 -0.4157 -0.8089
vn -0.8198 0.0000 -0.5726
vn -0.5888 -0.0000 -0.8083
vn -0.5792 0.5792 -0.5735
vn -0.4157 0.4157 -0.8089
vn 0.0000 0.8198 -0.5726
vn -0.0000 0.5888 -0.8083
vn 0.5792 0.5792 -0.5735
vn 0.4157 0.4157 -0.8089
vn 0.2016 -0.2016 -0.9585
vn 0.2850 -0.0000 -0.9585
vn 0.0000 -0.0000 -1.0000
vn -0.0000 -0.2850 -0.9585
vn -0.2016 -0.2016 -0.9585
vn -0.2850 0.0000 -0.9585
vn -0.2016 0.2016 -0.9585
vn 0.0000 0.2850 -0.9585
vn 0.2016 0.2016 -0.9585
vn 0.0384 0.0031 -0.9993
vn -0.0182 -0.9619 0.2727
vn -0.0190 -0.9786 0.2047
vn 0.2817 0.0145 -0.9594
vn -0.2938 -0.9475 0.1264
vn 0.9324 0.0422 -0.3590
vn -0.0473 -0.0015 0.9989
vn -0.4420 -0.0127 0.8969
vn -0.9859 -0.0106 0.1669
vn -0.0177 0.9631 0.2685
vn -0.0097 0.9839 0.1786
vn -0.2735 0.9565 0.1013
vn -0.1217 -0.9875 -0.0998
vn 0.8176 0.0138 0.5756
vn -0.3352 -0.7946 -0.5061
vn 0.6216 0.0294 0.7828
vn -0.7747 -0.0079 -0.6322
vn -0.5711 -0.0076 -0.8208
vn -0.1055 0.9904 -0.0889
vn -0.3009 0.8200 -0.4869
vn -0.4862 0.0074 0.8738
vn 0.3271 -0.9145 -0.2382
vn 0.1595 -0.9869 0.0246
vn -0.6970 -0.0236 0.7167
vn -0.0062 -0.9245 0.3812
vn -0.7234 -0.0562 0.6881
vn 0.6538 0.0025 -0.7567
vn 0.7677 0.0173 -0.6406
vn 0.6465 0.0447 -0.7616
vn 0.3456 0.9087 -0.2343
vn 0.1845 0.9828 0.0081
vn 0.0506 0.9476 0.3154
vn 0.2319 -0.5821 0.7793
vn 0.0415 -0.0704 0.9967
vn 0.3158 0.9477 -0.0454
vn 0.9011 -0.0135 -0.4334
vn 0.9533 0.0371 0.2997
vn -0.3219 0.0032 0.9468
vn 0.3655 0.5783 0.7294
vn 0.3394 -0.9333 -0.1174
vn 0.0000 -0.0000 1.0000
vn 0.6774 -0.6773 0.2871
vn 0.9576 -0.0001 0.2882
vn 0.5955 -0.5952 0.5396
vn 0.8436 -0.0002 0.5370
vn -0.0001 -0.9576 0.2882
vn -0.0002 -0.8436 0.5370
vn -0.6773 -0.6774 0.2871
vn -0.5952 -0.5955 0.5396
vn -0.9576 0.0001 0.2882
vn -0.8436 0.0002 0.5370
vn -0.6774 0.6773 0.2871
vn -0.5955 0.5952 0.5396
vn 0.0001 0.9576 0.2882
vn 0.0002 0.8436 0.5370
vn 0.6773 0.6774 0.2871
vn 0.5952 0.5955 0.5396
vn 0.1942 -0.1942 0.9616
vn 0.2754 0.0000 0.9613
vn 0.2121 -0.2121 0.9539
vn 0.3011 0.0000 0.9536
vn 0.0000 -0.2754 0.9613
vn 0.0000 -0.3011 0.9536
vn -0.1942 -0.1942 0.9616
vn -0.2121 -0.2121 0.9539
vn -0.2754 -0.0000 0.9613
vn -0.3011 -0.0000 0.9536
vn -0.1942 0.1942 0.9616
vn -0.2121 0.2121 0.9539
vn -0.0000 0.2754 0.9613
vn -0.0000 0.3011 0.9536
vn 0.1942 0.1942 0.9616
vn 0.2121 0.2121 0.9539
# 138 vertex normals

vt 0.3088 0.8936 0.0000
vt 0.3707 0.8913 0.0000
vt 0.3709 0.9063 0.0000
vt 0.3089 0.9087 0.0000
vt 0.6671 0.3898 0.0000
vt 0.6051 0.3874 0.0000
vt 0.6162 0.3728 0.0000
vt 0.6825 0.3754 0.0000
vt 0.5223 0.8856 0.0000
vt 0.5228 0.9007 0.0000
vt 0.4532 0.3815 0.0000
vt 0.4538 0.3664 0.0000
vt 0.6790 0.8798 0.0000
vt 0.6754 0.8950 0.0000
vt 0.3007 0.3755 0.0000
vt 0.2914 0.3601 0.0000
vt 0.7357 0.8777 0.0000
vt 0.7368 0.8927 0.0000
vt 0.2393 0.3731 0.0000
vt 0.2251 0.3575 0.0000
vt 0.2403 0.3581 0.0000
vt 0.3022 0.3605 0.0000
vt 0.3013 0.3755 0.0000
vt 0.6747 0.8950 0.0000
vt 0.6846 0.8796 0.0000
vt 0.7510 0.8771 0.0000
vt 0.6053 0.3724 0.0000
vt 0.3599 0.8917 0.0000
vt 0.6672 0.3748 0.0000
vt 0.2935 0.8942 0.0000
vt 0.6580 0.2556 0.0000
vt 0.7396 0.2588 0.0000
vt 0.6793 0.1462 0.0000
vt 0.7677 0.1497 0.0000
vt 0.4585 0.2478 0.0000
vt 0.4628 0.1378 0.0000
vt 0.2589 0.2400 0.0000
vt 0.2463 0.1293 0.0000
vt 0.1773 0.2368 0.0000
vt 0.1578 0.1258 0.0000
vt 0.7174 0.7595 0.0000
vt 0.7989 0.7565 0.0000
vt 0.7302 0.6488 0.0000
vt 0.8187 0.6455 0.0000
vt 0.5178 0.7670 0.0000
vt 0.5137 0.6569 0.0000
vt 0.3182 0.7745 0.0000
vt 0.2972 0.6650 0.0000
vt 0.2367 0.7775 0.0000
vt 0.2088 0.6683 0.0000
vt 0.6553 0.0666 0.0000
vt 0.7327 0.0696 0.0000
vt 0.6296 0.0298 0.0000
vt 0.6959 0.0324 0.0000
vt 0.4659 0.0591 0.0000
vt 0.4673 0.0234 0.0000
vt 0.2764 0.0517 0.0000
vt 0.3049 0.0170 0.0000
vt 0.1990 0.0487 0.0000
vt 0.2386 0.0144 0.0000
vt 0.7002 0.5712 0.0000
vt 0.7776 0.5683 0.0000
vt 0.6718 0.5365 0.0000
vt 0.7381 0.5340 0.0000
vt 0.5108 0.5783 0.0000
vt 0.5094 0.5426 0.0000
vt 0.3213 0.5854 0.0000
vt 0.3470 0.5487 0.0000
vt 0.2439 0.5883 0.0000
vt 0.2807 0.5511 0.0000
vt 0.6069 0.0131 0.0000
vt 0.6637 0.0154 0.0000
vt 0.4682 0.0005 0.0000
vt 0.4679 0.0077 0.0000
vt 0.3288 0.0022 0.0000
vt 0.2721 0.0000 0.0000
vt 0.6479 0.5217 0.0000
vt 0.7047 0.5195 0.0000
vt 0.5086 0.5197 0.0000
vt 0.5088 0.5269 0.0000
vt 0.3698 0.5321 0.0000
vt 0.3130 0.5342 0.0000
vt 0.2121 0.2997 0.0000
vt 0.2191 0.3172 0.0000
vt 0.0716 0.3049 0.0000
vt 0.0884 0.2906 0.0000
vt 0.0229 0.2579 0.0000
vt 0.0457 0.2588 0.0000
vt 0.2260 0.3346 0.0000
vt 0.0548 0.3193 0.0000
vt 0.0000 0.2570 0.0000
vt 0.7501 0.8542 0.0000
vt 0.7571 0.8368 0.0000
vt 0.9046 0.8248 0.0000
vt 0.9213 0.8392 0.0000
vt 0.9534 0.7779 0.0000
vt 0.9763 0.7771 0.0000
vt 0.7641 0.8193 0.0000
vt 0.8878 0.8104 0.0000
vt 0.9305 0.7788 0.0000
vt 0.0590 0.1760 0.0000
vt 0.0732 0.1912 0.0000
vt 0.1664 0.1032 0.0000
vt 0.0448 0.1607 0.0000
vt 0.1749 0.0806 0.0000
vt 0.9174 0.6959 0.0000
vt 0.9316 0.6807 0.0000
vt 0.8102 0.6230 0.0000
vt 0.8017 0.6004 0.0000
vt 0.9032 0.7111 0.0000
vt 0.7188 0.2280 0.0000
vt 0.7213 0.1651 0.0000
vt 0.8453 0.2630 0.0000
vt 0.8214 0.2892 0.0000
vt 0.9112 0.3844 0.0000
vt 0.8654 0.3826 0.0000
vt 0.7237 0.1022 0.0000
vt 0.8693 0.2367 0.0000
vt 0.9569 0.3862 0.0000
vt 0.2528 0.6209 0.0000
vt 0.2551 0.6838 0.0000
vt 0.1309 0.7815 0.0000
vt 0.1070 0.7552 0.0000
vt 0.0648 0.9027 0.0000
vt 0.0191 0.9045 0.0000
vt 0.2575 0.7467 0.0000
vt 0.1548 0.8078 0.0000
vt 0.1106 0.9010 0.0000
vt 0.9301 0.3953 0.0000
vt 0.8842 0.3919 0.0000
vt 0.0918 0.9103 0.0000
vt 0.0459 0.9137 0.0000
vt 0.0953 0.9016 0.0000
vt 0.9760 0.3987 0.0000
vt 0.0000 0.9170 0.0000
vt 0.0343 0.9039 0.0000
vt 0.9417 0.3856 0.0000
vt 0.8807 0.3832 0.0000
vt 0.5265 1.0000 0.0000
vt 0.4903 0.9756 0.0000
vt 0.4855 0.4564 0.0000
vt 0.4999 0.4570 0.0000
vt 0.4493 0.4808 0.0000
vt 0.4737 0.4130 0.0000
vt 0.4825 0.4134 0.0000
vt 0.5256 0.9743 0.0000
vt 0.4503 0.4551 0.0000
vt 0.4520 0.4122 0.0000
vt 0.5608 0.9730 0.0000
vt 0.4151 0.4537 0.0000
vt 0.4304 0.4113 0.0000
vt 0.5751 0.9724 0.0000
vt 0.4008 0.4531 0.0000
vt 0.4215 0.4110 0.0000
vt 0.5456 0.9306 0.0000
vt 0.5545 0.9302 0.0000
vt 0.5240 0.9314 0.0000
vt 0.5023 0.9322 0.0000
vt 0.4760 0.9761 0.0000
vt 0.4935 0.9325 0.0000
vt 0.5422 0.3928 0.0000
vt 0.5787 0.3942 0.0000
vt 0.5945 0.3720 0.0000
vt 0.6520 0.3742 0.0000
vt 0.4529 0.3893 0.0000
vt 0.3636 0.3858 0.0000
vt 0.3131 0.3609 0.0000
vt 0.3271 0.3844 0.0000
vt 0.2556 0.3587 0.0000
vt 0.6124 0.9052 0.0000
vt 0.6489 0.9038 0.0000
vt 0.6630 0.8804 0.0000
vt 0.7205 0.8782 0.0000
vt 0.5231 0.9085 0.0000
vt 0.4338 0.9119 0.0000
vt 0.3815 0.8909 0.0000
vt 0.3973 0.9132 0.0000
vt 0.3240 0.8931 0.0000
# 178 texture coords

g Teapot001
usemtl 01___Default
s 1
f 1/1/1 2/2/2 3/3/3 
f 3/3/3 4/4/4 1/1/1 
f 4/5/4 3/6/3 5/7/5 
f 5/7/5 6/8/6 4/5/4 
f 2/2/2 7/9/7 8/10/8 
f 8/10/8 3/3/3 2/2/2 
f 3/6/3 8/11/8 9/12/9 
f 9/12/9 5/7/5 3/6/3 
f 7/9/7 10/13/10 11/14/11 
f 11/14/11 8/10/8 7/9/7 
f 8/11/8 11/15/11 12/16/12 
f 12/16/12 9/12/9 8/11/8 
f 10/13/10 13/17/13 14/18/14 
f 14/18/14 11/14/11 10/13/10 
f 11/15/11 14/19/14 15/20/15 
f 15/20/15 12/16/12 11/15/11 
f 13/21/13 16/22/16 17/23/17 
f 17/23/17 14/19/14 13/21/13 
f 14/18/14 17/24/17 18/25/18 
f 18/25/18 15/26/15 14/18/14 
f 16/22/16 19/12/19 20/11/20 
f 20/11/20 17/23/17 16/22/16 
f 17/24/17 20/10/20 21/9/21 
f 21/9/21 18/25/18 17/24/17 
f 19/12/19 22/27/22 23/6/23 
f 23/6/23 20/11/20 19/12/19 
f 20/10/20 23/3/23 24/28/24 
f 24/28/24 21/9/21 20/10/20 
f 22/27/22 1/29/1 4/5/4 
f 4/5/4 23/6/23 22/27/22 
f 23/3/23 4/4/4 6/30/6 
f 6/30/6 24/28/24 23/3/23 
f 6/8/6 5/7/5 25/31/25 
f 25/31/25 26/32/26 6/8/6 
f 26/32/26 25/31/25 27/33/27 
f 27/33/27 28/34/28 26/32/26 
f 5/7/5 9/12/9 29/35/29 
f 29/35/29 25/31/25 5/7/5 
f 25/31/25 29/35/29 30/36/30 
f 30/36/30 27/33/27 25/31/25 
f 9/12/9 12/16/12 31/37/31 
f 31/37/31 29/35/29 9/12/9 
f 29/35/29 31/37/31 32/38/32 
f 32/38/32 30/36/30 29/35/29 
f 12/16/12 15/20/15 33/39/33 
f 33/39/33 31/37/31 12/16/12 
f 31/37/31 33/39/33 34/40/34 
f 34/40/34 32/38/32 31/37/31 
f 15/26/15 18/25/18 35/41/35 
f 35/41/35 33/42/33 15/26/15 
f 33/42/33 35/41/35 36/43/36 
f 36/43/36 34/44/34 33/42/33 
f 18/25/18 21/9/21 37/45/37 
f 37/45/37 35/41/35 18/25/18 
f 35/41/35 37/45/37 38/46/38 
f 38/46/38 36/43/36 35/41/35 
f 21/9/21 24/28/24 39/47/39 
f 39/47/39 37/45/37 21/9/21 
f 37/45/37 39/47/39 40/48/40 
f 40/48/40 38/46/38 37/45/37 
f 24/28/24 6/30/6 26/49/26 
f 26/49/26 39/47/39 24/28/24 
f 39/47/39 26/49/26 28/50/28 
f 28/50/28 40/48/40 39/47/39 
f 28/34/28 27/33/27 41/51/41 
f 41/51/41 42/52/42 28/34/28 
f 42/52/42 41/51/41 43/53/43 
f 43/53/43 44/54/44 42/52/42 
f 27/33/27 30/36/30 45/55/45 
f 45/55/45 41/51/41 27/33/27 
f 41/51/41 45/55/45 46/56/46 
f 46/56/46 43/53/43 41/51/41 
f 30/36/30 32/38/32 47/57/47 
f 47/57/47 45/55/45 30/36/30 
f 45/55/45 47/57/47 48/58/48 
f 48/58/48 46/56/46 45/55/45 
f 32/38/32 34/40/34 49/59/49 
f 49/59/49 47/57/47 32/38/32 
f 47/57/47 49/59/49 50/60/50 
f 50/60/50 48/58/48 47/57/47 
f 34/44/34 36/43/36 51/61/51 
f 51/61/51 49/62/49 34/44/34 
f 49/62/49 51/61/51 52/63/52 
f 52/63/52 50/64/50 49/62/49 
f 36/43/36 38/46/38 53/65/53 
f 53/65/53 51/61/51 36/43/36 
f 51/61/51 53/65/53 54/66/54 
f 54/66/54 52/63/52 51/61/51 
f 38/46/38 40/48/40 55/67/55 
f 55/67/55 53/65/53 38/46/38 
f 53/65/53 55/67/55 56/68/56 
f 56/68/56 54/66/54 53/65/53 
f 40/48/40 28/50/28 42/69/42 
f 42/69/42 55/67/55 40/48/40 
f 55/67/55 42/69/42 44/70/44 
f 44/70/44 56/68/56 55/67/55 
f 44/54/44 43/53/43 57/71/57 
f 57/71/57 58/72/58 44/54/44 
f 58/72/58 57/71/57 59/73/59 
f 59/73/59 59/73/59 58/72/58 
f 43/53/43 46/56/46 60/74/60 
f 60/74/60 57/71/57 43/53/43 
f 57/71/57 60/74/60 59/73/59 
f 59/73/59 59/73/59 57/71/57 
f 46/56/46 48/58/48 61/75/61 
f 61/75/61 60/74/60 46/56/46 
f 60/74/60 61/75/61 59/73/59 
f 59/73/59 59/73/59 60/74/60 
f 48/58/48 50/60/50 62/76/62 
f 62/76/62 61/75/61 48/58/48 
f 61/75/61 62/76/62 59/73/59 
f 59/73/59 59/73/59 61/75/61 
f 50/64/50 52/63/52 63/77/63 
f 63/77/63 62/78/62 50/64/50 
f 62/78/62 63/77/63 59/79/59 
f 59/73/59 59/73/59 62/76/62 
f 52/63/52 54/66/54 64/80/64 
f 64/80/64 63/77/63 52/63/52 
f 63/77/63 64/80/64 59/79/59 
f 59/73/59 59/73/59 63/75/63 
f 54/66/54 56/68/56 65/81/65 
f 65/81/65 64/80/64 54/66/54 
f 64/80/64 65/81/65 59/79/59 
f 59/73/59 59/73/59 64/74/64 
f 56/68/56 44/70/44 58/82/58 
f 58/82/58 65/81/65 56/68/56 
f 65/81/65 58/82/58 59/79/59 
f 59/73/59 59/73/59 65/71/65 
f 66/83/66 67/84/67 68/85/68 
f 68/85/68 69/86/69 66/83/66 
f 69/86/69 68/85/68 70/87/70 
f 70/87/70 71/88/71 69/86/69 
f 67/84/67 72/89/72 73/90/73 
f 73/90/73 68/85/68 67/84/67 
f 68/85/68 73/90/73 74/91/74 
f 74/91/74 70/87/70 68/85/68 
f 72/92/72 75/93/75 76/94/76 
f 76/94/76 73/95/73 72/92/72 
f 73/95/73 76/94/76 77/96/77 
f 77/96/77 74/97/74 73/95/73 
f 75/93/75 66/98/66 69/99/69 
f 69/99/69 76/94/76 75/93/75 
f 76/94/76 69/99/69 71/100/71 
f 71/100/71 77/96/77 76/94/76 
f 71/88/71 70/87/70 78/101/78 
f 78/101/78 79/102/79 71/88/71 
f 79/102/79 78/101/78 80/103/80 
f 80/103/80 34/40/81 79/102/79 
f 70/87/70 74/91/74 81/104/82 
f 81/104/82 78/101/78 70/87/70 
f 78/101/78 81/104/82 82/105/83 
f 82/105/83 80/103/80 78/101/78 
f 74/97/74 77/96/77 83/106/84 
f 83/106/84 81/107/82 74/97/74 
f 81/107/82 83/106/84 84/108/85 
f 84/108/85 82/109/83 81/107/82 
f 77/96/77 71/100/71 79/110/79 
f 79/110/79 83/106/84 77/96/77 
f 83/106/84 79/110/79 34/44/81 
f 34/44/81 84/108/85 83/106/84 
f 85/111/86 86/112/87 87/113/88 
f 87/113/88 88/114/89 85/111/86 
f 88/114/89 87/113/88 89/115/90 
f 89/115/90 90/116/91 88/114/89 
f 86/112/87 91/117/92 92/118/93 
f 92/118/93 87/113/88 86/112/87 
f 87/113/88 92/118/93 93/119/94 
f 93/119/94 89/115/90 87/113/88 
f 91/120/92 94/121/95 95/122/96 
f 95/122/96 92/123/93 91/120/92 
f 92/123/93 95/122/96 96/124/97 
f 96/124/97 93/125/94 92/123/93 
f 94/121/95 85/126/86 88/127/89 
f 88/127/89 95/122/96 94/121/95 
f 95/122/96 88/127/89 90/128/91 
f 90/128/91 96/124/97 95/122/96 
f 90/116/91 89/115/90 97/129/98 
f 97/129/98 98/130/99 90/116/91 
f 98/131/99 97/132/98 99/124/100 
f 99/124/100 100/133/101 98/131/99 
f 89/115/90 93/119/94 101/134/102 
f 101/134/102 97/129/98 89/115/90 
f 97/132/98 101/135/102 102/136/103 
f 102/136/103 99/124/100 97/132/98 
f 93/125/94 96/124/97 103/132/104 
f 103/132/104 101/135/102 93/125/94 
f 101/134/102 103/129/104 104/115/105 
f 104/115/105 102/137/103 101/134/102 
f 96/124/97 90/128/91 98/131/99 
f 98/131/99 103/132/104 96/124/97 
f 103/129/104 98/130/99 100/138/101 
f 100/138/101 104/115/105 103/129/104 
f 105/139/106 105/139/106 106/140/107 
f 106/141/107 107/142/108 105/143/106 
f 107/142/108 106/141/107 108/144/109 
f 108/144/109 109/145/110 107/142/108 
f 105/139/106 105/139/106 110/146/111 
f 110/147/111 106/141/107 105/143/106 
f 106/141/107 110/147/111 111/148/112 
f 111/148/112 108/144/109 106/141/107 
f 105/139/106 105/139/106 112/149/113 
f 112/150/113 110/147/111 105/143/106 
f 110/147/111 112/150/113 113/151/114 
f 113/151/114 111/148/112 110/147/111 
f 105/139/106 105/139/106 114/152/115 
f 114/153/115 112/150/113 105/143/106 
f 112/150/113 114/153/115 115/154/116 
f 115/154/116 113/151/114 112/150/113 
f 105/139/106 105/139/106 116/149/117 
f 116/149/117 114/152/115 105/139/106 
f 114/152/115 116/149/117 117/155/118 
f 117/155/118 115/156/116 114/152/115 
f 105/139/106 105/139/106 118/146/119 
f 118/146/119 116/149/117 105/139/106 
f 116/149/117 118/146/119 119/157/120 
f 119/157/120 117/155/118 116/149/117 
f 105/139/106 105/139/106 120/140/121 
f 120/140/121 118/146/119 105/139/106 
f 118/146/119 120/140/121 121/158/122 
f 121/158/122 119/157/120 118/146/119 
f 105/139/106 105/139/106 107/159/108 
f 107/159/108 120/140/121 105/139/106 
f 120/140/121 107/159/108 109/160/110 
f 109/160/110 121/158/122 120/140/121 
f 109/145/110 108/144/109 122/161/123 
f 122/161/123 123/162/124 109/145/110 
f 123/162/124 122/161/123 124/163/125 
f 124/163/125 125/164/126 123/162/124 
f 108/144/109 111/148/112 126/165/127 
f 126/165/127 122/161/123 108/144/109 
f 122/161/123 126/165/127 127/12/128 
f 127/12/128 124/163/125 122/161/123 
f 111/148/112 113/151/114 128/166/129 
f 128/166/129 126/165/127 111/148/112 
f 126/165/127 128/166/129 129/167/130 
f 129/167/130 127/12/128 126/165/127 
f 113/151/114 115/154/116 130/168/131 
f 130/168/131 128/166/129 113/151/114 
f 128/166/129 130/168/131 131/169/132 
f 131/169/132 129/167/130 128/166/129 
f 115/156/116 117/155/118 132/170/133 
f 132/170/133 130/171/131 115/156/116 
f 130/171/131 132/170/133 133/172/134 
f 133/172/134 131/173/132 130/171/131 
f 117/155/118 119/157/120 134/174/135 
f 134/174/135 132/170/133 117/155/118 
f 132/170/133 134/174/135 135/9/136 
f 135/9/136 133/172/134 132/170/133 
f 119/157/120 121/158/122 136/175/137 
f 136/175/137 134/174/135 119/157/120 
f 134/174/135 136/175/137 137/176/138 
f 137/176/138 135/9/136 134/174/135 
f 121/158/122 109/160/110 123/177/124 
f 123/177/124 136/175/137 121/158/122 
f 136/175/137 123/177/124 125/178/126 
f 125/178/126 137/176/138 136/175/137 
# 256 faces

